<?xml version="1.0" encoding="UTF-8"?>
<svg width="22px" height="22px" viewBox="0 0 22 22" version="1.1" xmlns="http://www.w3.org/2000/svg" xmlns:xlink="http://www.w3.org/1999/xlink">
    <title>Shape</title>
    <g id="Page-1" stroke="none" stroke-width="1" fill="none" fill-rule="evenodd">
        <g id="download-dark" fill="#FFFFFF" fill-rule="nonzero">
            <path d="M10.9952169,22 C17.0169896,22 22,17.0243868 22,10.9999891 C22,4.97559795 17.0075237,0 10.985751,0 C4.9715684,0 0,4.97559795 0,10.9999891 C0,17.0243868 4.9810343,22 10.9952169,22 Z M10.9952169,19.8380197 C6.10429184,19.8380197 2.17810324,15.9025326 2.17810324,10.9999891 C2.17810324,6.09746736 6.09480413,2.16197811 10.985751,2.16197811 C15.8861419,2.16197811 19.8294084,6.09746736 19.8294084,10.9999891 C19.8294084,15.9025326 15.8956078,19.8380197 10.9952169,19.8380197 Z M10.9952169,5.54163861 C10.4622257,5.54163861 10.0590962,5.92513055 10.0590962,6.45350935 L10.0590962,11.4948301 L10.1560454,13.6843018 L9.18795003,12.4834428 L7.99214969,11.2376341 C7.84270191,11.0769275 7.60919521,10.9682187 7.35296162,10.9682187 C6.85148711,10.9682187 6.48161912,11.3337744 6.48161912,11.8246004 C6.48161912,12.0781961 6.5601381,12.2821505 6.73510454,12.4620371 L10.2496574,16.0221079 C10.4935243,16.2652298 10.7117198,16.3689418 10.9952169,16.3689418 C11.2976458,16.3689418 11.5234315,16.255738 11.7502422,16.0221079 L15.2666927,12.4620371 C15.4416373,12.2821505 15.5201563,12.0781961 15.5201563,11.8246004 C15.5201563,11.3337744 15.1408006,10.9682187 14.6488138,10.9682187 C14.3948267,10.9682187 14.1612982,11.0674575 14.0096257,11.2376341 L12.8255378,12.4744747 L11.8438543,13.6956483 L11.9408034,11.4948301 L11.9408034,6.45350935 C11.9408034,5.92513055 11.5395497,5.54163861 10.9952169,5.54163861 Z" id="Shape"></path>
        </g>
    </g>
</svg>