<?xml version="1.0" encoding="UTF-8"?>
<svg width="16px" height="16px" viewBox="0 0 109 106" version="1.1" xmlns="http://www.w3.org/2000/svg" xmlns:xlink="http://www.w3.org/1999/xlink">
    <g id="Page-1" stroke="none" stroke-width="1" fill="none" fill-rule="evenodd">
        <g id="captions.bubble.fill" transform="translate(-1989.000000, -1041.000000)" fill="#000000" fill-rule="nonzero">
            <g id="Symbols" transform="translate(493.659000, 618.753900)">
                <g id="Semibold-M" transform="translate(1495.351900, 422.780300)">
                    <path d="M29.4143,104.5243 C31.5404,104.5243 33.1612,103.5536 35.6959,101.2461 L53.8871,84.919127 L85.1602,84.919127 C99.9471,84.919127 108.5211,76.2197 108.5211,61.5952 L108.5211,23.361 C108.5211,8.7364 99.9471,0 85.1602,0 L23.361,0 C8.5741,0 -8.8817842e-15,8.7222 -8.8817842e-15,23.361 L-8.8817842e-15,61.5952 C-8.8817842e-15,76.23391 8.9373,84.919127 22.8163,84.919127 L24.5025,84.919127 L24.5025,99.0385 C24.5025,102.3792 26.3591,104.5243 29.4143,104.5243 Z M22.8449,48.1713 C20.937,48.1713 19.3674,46.5291 19.3674,44.5407 C19.3674,42.6518 20.9188,40.9907 22.8449,40.9907 L41.4244,40.9907 C43.4049,40.9907 44.9934,42.6336 44.9934,44.5407 C44.9934,46.5291 43.4049,48.1713 41.4244,48.1713 L22.8449,48.1713 Z M52.2615,48.1713 C50.3536,48.1713 48.784,46.5291 48.784,44.5407 C48.784,42.6518 50.3354,40.9907 52.2615,40.9907 L85.6212,40.9907 C87.5831,40.9907 89.1901,42.6336 89.1901,44.5407 C89.1901,46.5291 87.5831,48.1713 85.6212,48.1713 L52.2615,48.1713 Z M22.8449,61.654 C20.937,61.654 19.3674,60.019 19.3674,58.104 C19.3674,56.1046 20.9188,54.4806 22.8449,54.4806 L30.9102,54.4806 C32.8725,54.4806 34.4421,56.0865 34.4421,58.104 C34.4421,60.019 32.8725,61.654 30.9102,61.654 L22.8449,61.654 Z M41.7101,61.654 C39.8023,61.654 38.2327,60.019 38.2327,58.104 C38.2327,56.1046 39.7841,54.4806 41.7101,54.4806 L65.3706,54.4806 C67.3147,54.4806 68.9025,56.0865 68.9025,58.104 C68.9025,60.019 67.3147,61.654 65.3706,61.654 L41.7101,61.654 Z M76.1894,61.654 C74.2816,61.654 72.712,60.019 72.712,58.104 C72.712,56.1046 74.2634,54.4806 76.1894,54.4806 L85.6212,54.4806 C87.5651,54.4806 89.1901,56.0865 89.1901,58.104 C89.1901,60.019 87.5651,61.654 85.6212,61.654 L76.1894,61.654 Z" id="Shape"></path>
                </g>
            </g>
        </g>
    </g>
</svg>